<?xml version="1.0" standalone="no"?>
<!DOCTYPE svg PUBLIC "-//W3C//DTD SVG 20010904//EN"
 "http://www.w3.org/TR/2001/REC-SVG-20010904/DTD/svg10.dtd">
<svg version="1.0" xmlns="http://www.w3.org/2000/svg"
 width="188.000000pt" height="99.000000pt" viewBox="0 0 188.000000 99.000000"
 preserveAspectRatio="xMidYMid meet">

<g transform="translate(0.000000,99.000000) scale(0.100000,-0.100000)"
fill="#000000" stroke="none">
<path d="M224 736 l-34 -34 0 -126 0 -126 25 0 c14 0 25 5 25 10 0 25 66 -2
250 -102 106 -57 380 -183 424 -194 31 -7 195 67 664 300 l83 41 -300 3 -301
2 0 93 c0 73 -4 98 -19 124 -35 56 -122 56 -174 -1 -27 -28 -29 -35 -23 -80 8
-67 30 -88 100 -94 45 -4 56 -8 56 -22 0 -25 -70 -30 -437 -30 -273 0 -314 2
-320 15 -8 22 -3 25 57 32 55 6 83 25 108 72 16 30 15 46 -3 85 -19 40 -62 66
-110 66 -29 0 -45 -8 -71 -34z m99 -27 c68 -36 35 -115 -45 -107 -32 3 -33 5
-32 42 1 28 8 45 24 58 26 21 25 21 53 7z m661 -4 c17 -18 31 -78 21 -94 -3
-6 -22 -11 -41 -11 -38 0 -74 29 -74 60 0 25 34 60 59 60 11 0 26 -7 35 -15z"/>
<path d="M497 759 c-27 -16 -47 -76 -47 -145 l0 -64 30 0 30 0 0 61 c0 64 12
99 34 99 8 0 16 14 18 30 4 27 2 30 -21 30 -14 0 -34 -5 -44 -11z"/>
<path d="M629 747 c-59 -39 -65 -118 -13 -170 77 -77 205 -12 191 97 -12 86
-103 123 -178 73z m99 -43 c42 -29 18 -104 -34 -104 -56 0 -74 82 -24 107 32
16 31 16 58 -3z"/>
<path d="M1142 750 c-60 -37 -69 -109 -21 -164 38 -44 83 -54 133 -31 49 23
66 50 66 103 0 37 -6 50 -34 78 -41 41 -92 46 -144 14z m96 -46 c25 -17 31
-71 10 -92 -17 -17 -64 -15 -82 4 -33 33 -7 104 39 104 6 0 21 -7 33 -16z"/>
<path d="M1385 745 c-23 -22 -25 -32 -25 -110 0 -84 0 -85 25 -85 24 0 25 3
25 58 0 72 7 99 28 107 31 11 52 -30 52 -101 0 -62 1 -64 25 -64 24 0 25 2 25
69 0 73 17 108 47 97 8 -3 17 -6 19 -6 2 0 4 -36 4 -80 l0 -80 30 0 30 0 0 89
c0 85 -1 91 -26 110 -32 25 -52 26 -98 4 -32 -15 -37 -15 -60 0 -36 24 -73 21
-101 -8z"/>
</g>
</svg>
