<?xml version="1.0" standalone="no"?>
<!DOCTYPE svg PUBLIC "-//W3C//DTD SVG 20010904//EN"
 "http://www.w3.org/TR/2001/REC-SVG-20010904/DTD/svg10.dtd">
<svg version="1.0" xmlns="http://www.w3.org/2000/svg"
 width="664.000000pt" height="153.000000pt" viewBox="0 0 664.000000 153.000000"
 preserveAspectRatio="xMidYMid meet">

<g transform="translate(0.000000,153.000000) scale(0.100000,-0.100000)"
fill="#000000" stroke="none">
<path d="M413 1466 c-114 -28 -207 -90 -279 -189 -84 -113 -84 -115 -84 -713
l0 -524 120 0 120 0 0 269 0 270 43 -19 c244 -107 541 17 638 267 33 87 38
221 10 311 -73 242 -324 387 -568 328z m235 -263 c28 -17 59 -48 77 -77 27
-44 30 -58 30 -126 0 -68 -3 -82 -30 -126 -19 -30 -49 -60 -79 -79 -43 -26
-59 -30 -120 -30 -79 1 -114 15 -166 67 -124 123 -77 333 87 394 58 22 145 12
201 -23z"/>
<path d="M1465 1466 c-166 -41 -295 -162 -345 -323 -18 -59 -20 -93 -20 -344
l0 -279 120 0 120 0 0 278 0 277 29 50 c32 55 94 97 164 110 l37 7 0 119 0
119 -27 -1 c-16 0 -50 -6 -78 -13z"/>
<path d="M2050 1469 c-107 -21 -237 -111 -299 -207 -54 -84 -74 -155 -74 -262
0 -147 50 -260 157 -357 278 -251 724 -91 788 285 55 323 -243 605 -572 541z
m171 -241 c89 -26 169 -135 169 -228 0 -93 -80 -202 -169 -228 -111 -34 -228
17 -284 123 -27 52 -28 155 -3 205 57 110 174 162 287 128z"/>
<path d="M3101 1464 c-237 -63 -393 -301 -353 -536 26 -154 122 -286 254 -352
146 -74 266 -74 442 -1 18 8 19 4 14 -56 -6 -72 -31 -130 -75 -171 -33 -31
-108 -67 -140 -68 -23 0 -23 -2 -23 -120 l0 -120 28 0 c15 0 54 7 85 15 170
44 305 178 349 344 23 91 26 626 3 714 -23 89 -54 145 -118 214 -119 127 -303
181 -466 137z m209 -245 c96 -43 144 -117 144 -219 0 -175 -174 -289 -329
-216 -60 28 -97 66 -124 126 -52 115 2 249 124 306 62 29 125 30 185 3z"/>
<path d="M4185 1466 c-165 -40 -297 -165 -346 -328 -28 -90 -23 -224 10 -311
49 -125 169 -241 291 -280 316 -102 630 124 630 453 0 309 -288 538 -585 466z
m186 -241 c139 -50 200 -204 131 -336 -88 -169 -327 -169 -414 0 -100 192 81
407 283 336z"/>
<path d="M5256 1464 c-170 -41 -306 -176 -352 -349 -10 -36 -14 -127 -14 -322
l0 -273 120 0 120 0 0 268 c0 237 2 271 19 307 49 107 174 165 284 131 69 -21
111 -57 144 -123 l28 -58 3 -262 4 -263 113 0 113 0 4 268 c3 240 5 271 23
307 75 153 269 189 387 71 64 -64 68 -82 68 -378 l0 -268 120 0 120 0 0 273
c0 213 -3 286 -15 332 -59 227 -297 383 -527 347 -81 -12 -191 -63 -252 -115
l-40 -34 -60 49 c-116 93 -266 127 -410 92z"/>
</g>
</svg>
